<?xml version="1.0" encoding="UTF-8" standalone="no"?>
<!-- Created with Inkscape (http://www.inkscape.org/) -->

<svg
   xmlns:dc="http://purl.org/dc/elements/1.1/"
   xmlns:cc="http://creativecommons.org/ns#"
   xmlns:rdf="http://www.w3.org/1999/02/22-rdf-syntax-ns#"
   xmlns:svg="http://www.w3.org/2000/svg"
   xmlns="http://www.w3.org/2000/svg"
   xmlns:sodipodi="http://sodipodi.sourceforge.net/DTD/sodipodi-0.dtd"
   xmlns:inkscape="http://www.inkscape.org/namespaces/inkscape"
   version="1.1"
   width="365"
   height="100"
   id="svg2"
   inkscape:version="0.47 r22583"
   sodipodi:docname="SVG_LOGO_05.01.2011.svg">
  <title
     id="title3015">LOGO Fabryki Płyt Warstwowych ABO Bogusław Bugała</title>
  <metadata
     id="metadata13">
    <rdf:RDF>
      <cc:Work
         rdf:about="">
        <dc:format>image/svg+xml</dc:format>
        <dc:type
           rdf:resource="http://purl.org/dc/dcmitype/StillImage" />
        <dc:title>LOGO Fabryki Płyt Warstwowych ABO Bogusław Bugała</dc:title>
        <dc:creator>
          <cc:Agent>
            <dc:title>Bartłomiej Bugała</dc:title>
          </cc:Agent>
        </dc:creator>
        <dc:coverage>Logo firmy</dc:coverage>
        <dc:rights>
          <cc:Agent>
            <dc:title>Bartłomiej Bugała</dc:title>
          </cc:Agent>
        </dc:rights>
      </cc:Work>
    </rdf:RDF>
  </metadata>
  <sodipodi:namedview
     pagecolor="#ffffff"
     bordercolor="#666666"
     borderopacity="1"
     objecttolerance="10"
     gridtolerance="10"
     guidetolerance="10"
     inkscape:pageopacity="0"
     inkscape:pageshadow="2"
     inkscape:window-width="1128"
     inkscape:window-height="924"
     id="namedview11"
     showgrid="false"
     inkscape:zoom="1.4794521"
     inkscape:cx="182.5"
     inkscape:cy="44.25463"
     inkscape:window-x="0"
     inkscape:window-y="0"
     inkscape:window-maximized="0"
     inkscape:current-layer="svg2" />
  <defs
     id="defs4">
    <inkscape:perspective
       sodipodi:type="inkscape:persp3d"
       inkscape:vp_x="0 : 50 : 1"
       inkscape:vp_y="0 : 1000 : 0"
       inkscape:vp_z="365 : 50 : 1"
       inkscape:persp3d-origin="182.5 : 33.333333 : 1"
       id="perspective15" />
  </defs>
  <g
     style="fill:#11396b;fill-opacity:1"
     id="layer1-4"
     transform="matrix(0.19730102,0,0,0.19730102,-21.242417,-56.86073)">
    <g
       style="fill:#11396b;fill-opacity:1"
       id="g3935"
       transform="matrix(0.70710678,0.70710678,-0.70710678,0.70710678,476.71585,92.702487)" />
  </g>
  <g
     style="font-size:40px;font-style:normal;font-variant:normal;font-weight:bold;font-stretch:normal;text-align:start;text-anchor:start;fill:#11396b;fill-opacity:1;stroke:none;font-family:Antique Olive Compact;-inkscape-font-specification:Antique Olive Compact Bold"
     id="text2830">
    <path
       id="path3012"
       style="fill:#11396b;font-family:Franklin Gothic Heavy;-inkscape-font-specification:Franklin Gothic Heavy"
       d="m 357.8494,90.049774 -7.77344,0 0,-11.953125 c -2e-5,-1.093737 -0.12046,-1.845689 -0.36133,-2.255859 -0.2409,-0.410142 -0.70639,-0.61522 -1.39648,-0.615235 -0.53387,1.5e-5 -0.99936,0.15952 -1.39649,0.478516 -0.39714,0.319024 -0.62826,0.6478 -0.69336,0.986328 -0.0651,0.338555 -0.0977,1.04819 -0.0976,2.128906 l 0,11.230469 -7.79297,0 0,-26.660156 7.79297,0 0,9.140625 c 1.40623,-1.835918 3.24217,-2.753886 5.50781,-2.753906 1.14582,2e-5 2.15167,0.198587 3.01758,0.595703 0.86586,0.397154 1.53318,0.908222 2.00195,1.533203 0.46873,0.625017 0.78448,1.230486 0.94727,1.816406 0.16273,0.585953 0.24411,1.718765 0.24414,3.398438 z m -28.47657,-8.007812 6.64063,0.566406 c -0.31252,2.317713 -1.28583,4.205732 -2.91992,5.664062 -1.63413,1.458334 -3.80536,2.1875 -6.51368,2.1875 -3.03386,0 -5.49805,-0.953775 -7.39257,-2.861328 -1.89454,-1.907547 -2.8418,-4.352206 -2.8418,-7.333984 0,-3.046862 0.94075,-5.556625 2.82227,-7.529297 1.8815,-1.972637 4.32616,-2.958964 7.33398,-2.958984 2.66926,2e-5 4.84373,0.745462 6.52344,2.236328 1.67967,1.490902 2.64321,3.375665 2.89062,5.654297 l -6.8164,0.566406 c -0.28648,-2.09634 -1.08075,-3.144516 -2.38282,-3.144531 -0.83334,1.5e-5 -1.44206,0.380874 -1.82617,1.142578 -0.38412,0.761732 -0.57618,2.0866 -0.57617,3.974609 -10e-6,1.627613 0.19205,2.832038 0.57617,3.613281 0.38411,0.781256 1.05142,1.17188 2.00195,1.171875 1.39322,5e-6 2.22004,-0.983066 2.48047,-2.949218 z M 315.48611,70.186493 307.69315,91.70993 c -0.59897,1.627601 -1.45835,2.900386 -2.57813,3.81836 -1.1198,0.917962 -2.84506,1.376946 -5.17578,1.376953 -0.5599,-7e-6 -1.86198,-0.0586 -3.90625,-0.175781 l 0,-5.527344 c 1.01562,0.156249 1.95312,0.234374 2.8125,0.234375 2.23958,-10e-7 3.35937,-0.494793 3.35937,-1.484375 0,-0.32552 -0.11068,-0.774739 -0.33203,-1.347656 l -7.1289,-18.417969 8.33984,0 3.28125,10.585937 3.4375,-10.585937 z m -20.85937,0 -6.28906,19.863281 -5.60547,0 -2.59766,-10.761719 -2.71484,10.761719 -5.54688,0 -6.40625,-19.863281 7.65625,0 2.61719,9.726562 2.5,-9.726562 5.74219,0 2.48047,9.726562 2.7539,-9.726562 z M 253.20096,90.45993 c -3.29428,0 -5.91147,-1.02539 -7.85156,-3.076171 -1.94011,-2.050777 -2.91016,-4.456374 -2.91016,-7.216797 0,-2.968737 1.01237,-5.442693 3.03711,-7.421875 2.02473,-1.979148 4.65819,-2.96873 7.90039,-2.96875 3.26821,2e-5 5.89516,0.976581 7.88086,2.929687 1.98565,1.953141 2.97849,4.401055 2.97851,7.34375 -2e-5,2.968757 -1.00588,5.445968 -3.01757,7.431641 -2.01174,1.985677 -4.68426,2.978515 -8.01758,2.978515 z m 0.11719,-4.726562 c 1.21092,4e-6 1.94985,-0.62825 2.21679,-1.884766 0.26692,-1.256503 0.40038,-2.56835 0.40039,-3.935547 -1e-5,-1.861967 -0.18881,-3.203111 -0.5664,-4.023437 -0.37762,-0.820298 -1.0547,-1.230453 -2.03125,-1.230469 -0.89845,1.6e-5 -1.556,0.423192 -1.97266,1.269531 -0.41668,0.846368 -0.62501,2.239596 -0.625,4.179688 -10e-6,2.278653 0.21483,3.785813 0.64453,4.521484 0.42968,0.735682 1.07421,1.10352 1.9336,1.103516 z m -12.12891,-15.546875 -6.28906,19.863281 -5.60547,0 -2.59766,-10.761719 -2.71484,10.761719 -5.54688,0 -6.40625,-19.863281 7.65625,0 2.61719,9.726562 2.5,-9.726562 5.74219,0 2.48047,9.726562 2.7539,-9.726562 z m -29.96094,0 0,5.058594 -3.96484,0 0,7.324218 c -1e-5,1.002611 0.18879,1.598314 0.5664,1.78711 0.3776,0.188807 0.76822,0.283208 1.17188,0.283203 0.62499,5e-6 1.36717,-0.110672 2.22656,-0.332031 l 0,5.546875 c -1.53647,0.299479 -3.04688,0.449218 -4.53125,0.449218 -2.39584,0 -4.1569,-0.514322 -5.2832,-1.542968 -1.12631,-1.028644 -1.68946,-2.669267 -1.68945,-4.921875 l 0.0195,-2.324219 0,-6.269531 -2.96875,0 0,-5.058594 2.96875,0 0.11718,-6.464844 7.40235,-0.117187 0,6.582031 z m -35.19531,14.238281 6.15234,-0.839844 c 0.35156,1.432297 1.74479,2.148442 4.17969,2.148438 2.01822,4e-6 3.02733,-0.39062 3.02734,-1.171875 -1e-5,-0.338536 -0.19532,-0.602208 -0.58593,-0.791016 -0.39064,-0.188795 -1.31512,-0.380852 -2.77344,-0.576172 -4.03647,-0.559888 -6.55599,-1.435538 -7.55859,-2.626953 -1.00261,-1.191395 -1.50391,-2.516264 -1.50391,-3.974609 0,-2.031235 0.84635,-3.675113 2.53906,-4.931641 1.6927,-1.25649 3.91275,-1.884745 6.66016,-1.884765 4.81769,2e-5 7.8906,1.738299 9.21875,5.214843 l -5.89844,1.113282 c -0.54689,-1.17186 -1.69923,-1.757797 -3.45703,-1.757813 -0.83334,1.6e-5 -1.45509,0.113948 -1.86523,0.341797 -0.41017,0.22788 -0.61525,0.452489 -0.61524,0.673828 -10e-6,0.651056 0.62499,1.048191 1.875,1.191406 3.2552,0.364597 5.46223,0.73569 6.62109,1.113282 1.15884,0.377616 2.14842,1.067719 2.96875,2.070312 0.8203,1.002614 1.23045,2.21355 1.23047,3.632813 -2e-5,2.174483 -0.90822,3.899742 -2.72461,5.175781 -1.81642,1.276042 -4.31967,1.914062 -7.50976,1.914062 -5.37761,0 -8.70443,-2.011717 -9.98047,-6.035156 z m -6.01563,5.625 -7.46093,0 0,-19.863281 6.48437,0 0,4.101562 c 0.74218,-2.981752 2.46744,-4.472636 5.17578,-4.472656 0.27343,2e-5 0.65103,0.02606 1.13282,0.07813 l 0,6.933594 c -0.54689,-0.130195 -1.03517,-0.195299 -1.46485,-0.195313 -2.57813,1.4e-5 -3.8672,1.438814 -3.86719,4.316407 z m -10.8789,0 -7.42188,0 c -0.1823,-0.846353 -0.27345,-1.770831 -0.27343,-2.773437 -1.40627,2.122396 -3.53517,3.183593 -6.38672,3.183593 -2.34376,0 -4.09831,-0.598958 -5.26367,-1.796875 -1.16537,-1.197914 -1.74805,-2.57161 -1.74805,-4.121093 0,-2.096347 0.95377,-3.792309 2.86133,-5.087891 1.90754,-1.295561 5.2897,-2.073555 10.14648,-2.333984 l 0,-0.449219 c -10e-6,-0.872382 -0.19858,-1.451808 -0.5957,-1.738281 -0.39715,-0.286443 -0.97983,-0.429672 -1.74805,-0.429688 -1.79688,1.6e-5 -2.79949,0.722671 -3.00781,2.167969 l -7.10938,-0.664063 c 1.01563,-4.153627 4.47265,-6.230448 10.3711,-6.230468 1.60155,2e-5 3.0729,0.159525 4.41406,0.478515 1.34113,0.31903 2.40232,0.817077 3.18359,1.494141 0.78123,0.677101 1.30532,1.393246 1.57227,2.148437 0.2669,0.755224 0.40037,2.207046 0.40039,4.355469 l 0,7.929688 c -2e-5,1.510419 0.2018,2.79948 0.60547,3.867187 z m -8.08594,-9.296875 c -3.32032,0.351572 -4.98048,1.412768 -4.98047,3.183594 -1e-5,1.197922 0.65754,1.796879 1.97266,1.796875 0.83332,4e-6 1.54295,-0.247391 2.1289,-0.742188 0.58593,-0.494786 0.8789,-1.588535 0.87891,-3.28125 z m -14.27734,-17.363281 -7.07032,26.660156 -6.875,0 -3.73046,-14.707031 -3.51563,14.707031 -7.16797,0 -7.08984,-26.660156 7.69531,0 3.73047,15.371094 3.63281,-15.371094 6.44531,0 3.94532,15.371094 3.73047,-15.371094 z m 198.28125,-43.203064 0,5.058594 -3.96485,0 0,7.324218 c -1e-5,1.002611 0.18879,1.598314 0.56641,1.78711 0.37759,0.188807 0.76822,0.283208 1.17187,0.283203 0.62499,5e-6 1.36718,-0.110672 2.22657,-0.332031 l 0,5.546875 c -1.53647,0.299479 -3.04689,0.449218 -4.53125,0.449218 -2.39584,0 -4.15691,-0.514322 -5.28321,-1.542968 -1.1263,-1.028644 -1.68945,-2.669267 -1.68945,-4.921875 l 0.0195,-2.324219 0,-6.269531 -2.96875,0 0,-5.058594 2.96875,0 0.11719,-6.464844 7.40234,-0.117187 0,6.582031 z m -14.17969,0 -7.79297,21.523437 c -0.59897,1.627601 -1.45834,2.900387 -2.57812,3.81836 -1.11981,0.917962 -2.84506,1.376946 -5.17579,1.376953 -0.5599,-7e-6 -1.86198,-0.0586 -3.90625,-0.175781 l 0,-5.527344 c 1.01563,0.156249 1.95313,0.234374 2.8125,0.234375 2.23958,-10e-7 3.35937,-0.494793 3.35938,-1.484375 -10e-6,-0.32552 -0.11068,-0.774739 -0.33203,-1.347656 l -7.12891,-18.417969 8.33985,0 3.28125,10.585937 3.4375,-10.585937 z m -20.78125,0.449219 0,4.101562 -2.28516,1.796875 0,13.515625 -7.69531,0 0,-9.824219 -2.28516,1.816407 0,-4.101563 2.28516,-1.816406 0,-12.734375 7.69531,0 0,9.042969 z m -27.48047,9.726562 0,9.6875 -8.30078,0 0,-26.660156 11.38672,0 c 2.83852,2.7e-5 4.99672,0.325547 6.47461,0.976562 1.47784,0.651067 2.64971,1.64716 3.51562,2.988282 0.86586,1.341167 1.29881,2.845072 1.29883,4.511718 -2e-5,2.539079 -0.88544,4.589858 -2.65625,6.152344 -1.77085,1.562511 -4.13413,2.34376 -7.08984,2.34375 z m -0.11719,-5.722656 2.73438,0 c 2.40884,1.5e-5 3.61326,-0.8854 3.61328,-2.65625 -2e-5,-1.666647 -1.1133,-2.499979 -3.33984,-2.5 l -3.00782,0 z m -21.875,15.410156 -7.42187,0 c -0.18231,-0.846353 -0.27345,-1.770831 -0.27344,-2.773437 -1.40626,2.122396 -3.53517,3.183593 -6.38672,3.183593 -2.34375,0 -4.09831,-0.598958 -5.26367,-1.796875 -1.16537,-1.197914 -1.74805,-2.57161 -1.74805,-4.121093 0,-2.096347 0.95378,-3.792309 2.86133,-5.087891 1.90755,-1.295561 5.28971,-2.073555 10.14649,-2.333984 l 0,-0.449219 c -2e-5,-0.872382 -0.19859,-1.451808 -0.59571,-1.738281 -0.39715,-0.286443 -0.97983,-0.429672 -1.74804,-0.429688 -1.79689,1.6e-5 -2.79949,0.722671 -3.00782,2.167969 l -7.10937,-0.664063 c 1.01562,-4.153627 4.47265,-6.230448 10.37109,-6.230468 1.60155,2e-5 3.0729,0.159525 4.41406,0.478515 1.34113,0.31903 2.40233,0.817077 3.1836,1.494141 0.78123,0.677101 1.30532,1.393246 1.57226,2.148437 0.26691,0.755224 0.40037,2.207046 0.40039,4.355469 l 0,7.929688 c -2e-5,1.510419 0.20181,2.79948 0.60547,3.867187 z M 242.5369,30.75296 c -3.32033,0.351572 -4.98048,1.412769 -4.98047,3.183594 -1e-5,1.197922 0.65754,1.796879 1.97265,1.796875 0.83332,4e-6 1.54296,-0.247391 2.12891,-0.742188 0.58592,-0.494786 0.87889,-1.588535 0.87891,-3.28125 z m -14.375,-10.566406 -5.9961,6.835937 6.67969,13.027344 -8.04688,0 -3.73046,-7.949219 -2.12891,2.480469 0,5.46875 -7.30469,0 0,-26.660156 7.30469,0 0,10.761719 c -1e-5,0.299494 -0.0195,1.49741 -0.0586,3.59375 0.46874,-0.66405 0.944,-1.269518 1.42578,-1.816407 l 4.98047,-5.742187 z m -22.44141,0 -7.79297,21.523437 c -0.59897,1.627601 -1.45834,2.900387 -2.57812,3.81836 -1.11981,0.917962 -2.84506,1.376946 -5.17579,1.376953 -0.5599,-7e-6 -1.86198,-0.0586 -3.90625,-0.175781 l 0,-5.527344 c 1.01563,0.156249 1.95313,0.234374 2.8125,0.234375 2.23958,-10e-7 3.35937,-0.494793 3.35938,-1.484375 -1e-5,-0.32552 -0.11068,-0.774739 -0.33203,-1.347656 l -7.12891,-18.417969 8.33985,0 3.28125,10.585937 3.4375,-10.585937 z m -26.32813,19.863281 -7.46093,0 0,-19.863281 6.48437,0 0,4.101562 c 0.74218,-2.981752 2.46744,-4.472636 5.17578,-4.472656 0.27343,2e-5 0.65103,0.02606 1.13282,0.07813 l 0,6.933594 c -0.54689,-0.130195 -1.03517,-0.195299 -1.46485,-0.195313 -2.57813,1.4e-5 -3.8672,1.438815 -3.86719,4.316407 z m -26.54296,0 -4.39454,0 0,-26.660156 7.67579,0 0,9.160156 c 1.06769,-1.848939 2.76691,-2.773417 5.09765,-2.773437 1.64061,2e-5 3.03384,0.429707 4.17969,1.289062 1.14581,0.859393 1.99868,2.086606 2.55859,3.681641 0.55988,1.595066 0.83982,3.271496 0.83985,5.029297 -3e-5,3.203132 -0.71617,5.784509 -2.14844,7.74414 -1.43231,1.959636 -3.56773,2.939453 -6.40625,2.939453 -2.79949,0 -4.92839,-1.048176 -6.38672,-3.144531 -0.41667,0.781252 -0.75521,1.69271 -1.01562,2.734375 z m 3.28125,-7.402344 c -1e-5,1.953131 0.75519,2.929692 2.26562,2.929688 0.8203,4e-6 1.44855,-0.354813 1.88477,-1.064453 0.43618,-0.709629 0.65428,-2.171216 0.65429,-4.384766 -1e-5,-2.408842 -0.24741,-3.922512 -0.74218,-4.541015 -0.49481,-0.618475 -1.10679,-0.927719 -1.83594,-0.927735 -0.57293,1.6e-5 -1.08725,0.22137 -1.54297,0.664063 -0.45574,0.442722 -0.6836,1.087253 -0.68359,1.933593 z m -11.13282,7.402344 -7.42187,0 c -0.18231,-0.846353 -0.27345,-1.770831 -0.27344,-2.773437 -1.40626,2.122396 -3.53517,3.183593 -6.38672,3.183593 -2.34375,0 -4.09831,-0.598958 -5.26367,-1.796875 -1.16537,-1.197914 -1.74805,-2.57161 -1.74805,-4.121093 0,-2.096347 0.95378,-3.792309 2.86133,-5.087891 1.90755,-1.295561 5.28971,-2.073555 10.14649,-2.333984 l 0,-0.449219 c -2e-5,-0.872382 -0.19859,-1.451808 -0.59571,-1.738281 -0.39715,-0.286443 -0.97983,-0.429672 -1.74804,-0.429688 -1.79689,1.6e-5 -2.79949,0.722671 -3.00782,2.167969 l -7.10937,-0.664063 c 1.01562,-4.153627 4.47265,-6.230448 10.37109,-6.230468 1.60155,2e-5 3.0729,0.159525 4.41406,0.478515 1.34113,0.31903 2.40233,0.817077 3.1836,1.494141 0.78123,0.677101 1.30532,1.393246 1.57226,2.148437 0.26691,0.755224 0.40037,2.207046 0.40039,4.355469 l 0,7.929688 c -2e-5,1.510419 0.20181,2.79948 0.60547,3.867187 z M 136.9119,30.75296 c -3.32033,0.351572 -4.98048,1.412769 -4.98047,3.183594 -1e-5,1.197922 0.65754,1.796879 1.97265,1.796875 0.83332,4e-6 1.54296,-0.247391 2.12891,-0.742188 0.58592,-0.494786 0.87889,-1.588535 0.87891,-3.28125 z m -16.875,-0.683594 -8.69141,0 0,9.980469 -7.96875,0 0,-26.660156 19.27734,0 0,6.347656 -11.30859,0 0,4.335938 8.69141,0 z m -69.910093,65.685398 0,-0.262533 -0.357349,0 c 9.86e-4,-1.97e-4 -0.488446,0 -0.488446,0 l 0,-4.454443 0,-4.062756 0.415794,0 0.430001,0 0,-0.541116 0,-0.461633 -21.322936,0.0078 -21.5330292,-0.0078 0,1.002749 c -0.00442,-0.0051 0.00809,0.664033 0,0.662685 -0.012272,-0.0021 -0.5745879,4e-6 -0.5778927,0 l -0.5737376,-0.0022 0,3.691054 0,3.635404 0.5934973,0 0.558133,1.5e-4 3.9e-6,0.722727 -3.9e-6,0.977585 21.5355192,0.02296 21.320448,-0.02297 0,-0.323773 0,-0.159591 0,-0.113353 z m 42.943812,-0.03325 0,-0.229286 -0.489959,0 c -0.0048,0.0033 -0.728033,-0.002 -0.730778,0 -1.97e-4,1.82e-4 -0.0059,-8.513399 0,-8.517199 0.0037,-0.0023 0.638352,0.0016 0.640234,0 l 0.580503,0 0,-0.558054 0,-0.444695 c 0.0053,-0.0037 -21.211552,0 -21.20306,0 l -20.877514,0 0,0.880282 c -0.0044,-0.0024 0.0018,0.786865 0,0.785142 -3.95e-4,-3.94e-4 -0.443219,0.0038 -0.439595,10e-6 l -0.423643,-10e-6 0,3.54927 0,3.775158 0.485256,0 0.377982,0 0,0.488294 c 0,0.0039 -1.38e-4,1.213241 0,1.212018 0,0 21.254832,0.0023 21.236681,0.0023 l 18.856072,-0.0023 0.767084,0 0.566771,0 0.357735,0 0.296231,0 0,-0.305183 0,-0.208498 0,-0.200549 z M 41.059395,28.06867 40.579867,27.561111 c 1.97e-4,1.97e-4 -0.307216,-0.307213 -0.307488,-0.307488 l -0.336872,-0.336869 c 0.0016,-0.0016 0.736801,-0.736801 0.736801,-0.736801 0,0 -1.374328,-1.267434 -3.278888,-3.170746 l -3.147451,-3.061147 -2.062951,-0.02344 -2.390772,0.02427 -0.773812,0.755756 -0.778171,0.756657 -0.0064,0.818952 c 0,9.86e-4 -0.0037,0.843775 -8e-6,0.846184 5.92e-4,0 0.156953,0.593582 0.156953,0.593582 -0.0012,-0.0095 0.0032,1.016395 0.0032,1.016395 0.03964,0.240928 -0.729602,0.376985 -0.726157,0.0062 l -0.0052,-1.950228 0,-1.582601 0.969036,-0.969036 0.922992,-0.922992 2.460955,0 2.415176,0 C 34.399523,19.345067 49.77439,3.9701991 49.77439,3.9701991 l 7.721993,7.7219949 c 0,0 -16.394977,16.394977 -16.436988,16.376476 z M 21.157823,48.030755 c 0.01797,-0.01797 -15.4439881,0 -15.4439881,0 l 8.3245191,-8.320441 c -0.0088,0.0065 14.823237,-14.82552 14.851976,-14.851978 0,-0.0023 6.1e-5,-1.213936 0.01058,-1.213287 9.87e-4,5.7e-5 -0.162649,-0.560647 -0.174297,-0.564946 -0.01196,-0.0044 -0.0053,-0.766508 -0.0045,-0.765386 l 9.2e-5,-0.581738 0.683798,-0.683798 0.53835,-0.53835 2.158609,0.002 2.11526,-0.002 2.830114,2.830114 2.856573,2.856571 -0.46151,0.461511 c 9.86e-4,-1.97e-4 -0.366726,0.365818 -0.366722,0.366722 -0.0012,-9.87e-4 0.867539,0.867532 0.867752,0.867749 l 0.670946,0.679669 -6.410458,6.41046 c 0.0012,-0.0012 -13.04713,13.047128 -13.04713,13.047128 z m 72.687959,0.01058 c 0,0 -0.664717,-0.685175 -1.07094,-1.095186 -0.406222,-0.41002 -19.875208,-19.851091 -19.875208,-19.851091 0,0 -8.134277,8.154776 -8.129972,8.129972 l -12.807055,12.807055 40.197316,0.0053 c 0.0026,-0.0036 1.543309,0.0039 1.543735,0.0039 z m -54.76282,0 c 1.97e-4,0 -15.485461,-0.0093 -15.485461,-0.0093 -0.0035,0.0016 35.119582,-35.119579 35.119582,-35.119579 0,0 12.981253,12.98103 12.98102,12.981018 -0.0033,0.0012 -4.910223,4.902354 -11.026253,11.018518 l -11.112309,11.120047 -5.473347,1.98e-4 c -0.0022,0 -5.003232,0.009 -5.003232,0.009 z m -18.690728,18.608817 0,8.054389 -2.61768,0 0,7.271336 -9.0835691,0 0,-19.420043 c 0,-3.758703 1.0254385,-6.678415 3.0763331,-8.759161 2.050879,-2.080687 4.933309,-3.121048 8.647292,-3.121079 3.579711,3.1e-5 6.227216,0.943436 7.94253,2.830227 1.715264,1.886841 2.57291,4.799097 2.572933,8.736784 l 0,19.733272 -9.083569,0 0,-19.129192 c -1.8e-5,-1.193225 -0.141719,-2.021035 -0.425099,-2.48344 -0.283405,-0.462363 -0.790538,-0.693548 -1.521384,-0.693574 -1.41699,2.6e-5 -2.125475,1.059021 -2.125467,3.177014 l 0,3.803467 2.61768,0 z m 16.041674,-15.213862 11.097176,0 c 6.577735,2.3e-5 9.866611,2.587871 9.866637,7.763546 -2.6e-5,2.565493 -1.126153,4.698418 -3.378376,6.39877 3.266481,1.416988 4.899736,3.945172 4.89976,7.584553 -2.4e-5,2.789213 -0.962081,5.01163 -2.886163,6.667252 -0.939697,0.790529 -1.946498,1.342398 -3.020392,1.655627 -1.073943,0.313224 -2.520748,0.469839 -4.340433,0.469839 l -1.722746,0 0,-7.85304 1.543762,0 c 0.90983,1e-5 1.551203,-0.115581 1.924105,-0.346782 0.372874,-0.23118 0.559321,-0.637636 0.559337,-1.219346 -1.6e-5,-0.984418 -0.760714,-1.476635 -2.28208,-1.476641 l -1.745124,0 0,-8.143889 c 1.670526,1.8e-5 2.505802,-0.574233 2.50582,-1.722746 -1.8e-5,-1.058987 -0.753258,-1.588482 -2.259712,-1.588508 l -1.678,0 0,22.350952 -9.083571,0 0,-30.539587 z m 40.339111,8.233381 c -1.864458,2.6e-5 -3.452968,0.686134 -4.765517,2.058345 -1.312584,1.372252 -1.968868,3.027874 -1.968851,4.966881 -1.7e-5,1.939037 0.66,3.594659 1.980038,4.966878 1.320011,1.37224 2.904782,2.058349 4.75433,2.058343 1.879339,6e-6 3.471572,-0.682376 4.77671,-2.047156 1.305084,-1.364763 1.957635,-3.024118 1.957663,-4.978065 -2.8e-5,-1.953923 -0.652579,-3.613276 -1.957663,-4.978062 -1.305138,-1.364753 -2.897371,-2.047138 -4.77671,-2.047164 z m 0.268483,-8.994077 c 4.325485,3.1e-5 8.035723,1.573619 11.130725,4.720776 3.094947,3.147198 4.642432,6.913374 4.642465,11.298527 -3.3e-5,4.459761 -1.558707,8.248306 -4.676024,11.365652 -3.117374,3.11735 -6.905916,4.676022 -11.365649,4.676022 -4.429935,0 -8.211016,-1.566128 -11.343276,-4.698398 -3.13227,-3.132262 -4.6984,-6.913351 -4.6984,-11.343276 0,-4.474647 1.577319,-8.263189 4.731957,-11.365651 3.15463,-3.102403 7.014031,-4.653621 11.578202,-4.653652 z" />
  </g>
</svg>
